<svg width="1440" height="773" viewBox="0 0 1440 773" fill="none" xmlns="http://www.w3.org/2000/svg">
<g clip-path="url(#clip0_58_103)">
<g clip-path="url(#clip1_58_103)">
<mask id="mask0_58_103" style="mask-type:alpha" maskUnits="userSpaceOnUse" x="-73" y="41" width="1586" height="566">
<path d="M1513 607H-73V41.1617H1513V607Z" fill="url(#paint0_linear_58_103)"/>
</mask>
<g mask="url(#mask0_58_103)">
<mask id="mask1_58_103" style="mask-type:alpha" maskUnits="userSpaceOnUse" x="-73" y="41" width="1586" height="566">
<path d="M1513 607H-73V41.1617H1513V607Z" fill="url(#paint1_linear_58_103)"/>
</mask>
<g mask="url(#mask1_58_103)">
<g style="mix-blend-mode:multiply">
<path d="M1513 607H-73V-225.658H1513V607Z" stroke="#7CCAC7" stroke-opacity="0.5" stroke-width="0.826041"/>
<path d="M1421.34 558.877H18.6602V-177.539H1421.34V558.877Z" stroke="#7CCAC7" stroke-opacity="0.5" stroke-width="0.826041"/>
<path d="M1338.41 515.339H101.591V-133.998H1338.41V515.339Z" stroke="#7CCAC7" stroke-opacity="0.5" stroke-width="0.826041"/>
<path d="M1264.2 476.382H175.792V-95.0427H1264.2V476.382Z" stroke="#7CCAC7" stroke-opacity="0.5" stroke-width="0.826041"/>
<path d="M1198.73 442.01H241.264V-60.6686H1198.73V442.01Z" stroke="#7CCAC7" stroke-opacity="0.5" stroke-width="0.826041"/>
<path d="M1141.99 412.22H298.005V-30.8788H1141.99V412.22Z" stroke="#7CCAC7" stroke-opacity="0.5" stroke-width="0.826041"/>
<path d="M1093.98 387.013H346.019V-5.67223H1093.98V387.013Z" stroke="#7CCAC7" stroke-opacity="0.5" stroke-width="0.826041"/>
<path d="M1054.7 366.39H385.302V14.9523H1054.7V366.39Z" stroke="#7CCAC7" stroke-opacity="0.5" stroke-width="0.826041"/>
<path d="M1024.15 350.349H415.856V30.9931H1024.15V350.349Z" stroke="#7CCAC7" stroke-opacity="0.5" stroke-width="0.826041"/>
<path d="M1002.32 338.89H437.68V42.449H1002.32V338.89Z" stroke="#7CCAC7" stroke-opacity="0.5" stroke-width="0.826041"/>
<path d="M984.862 329.723H455.138V51.6148H984.862V329.723Z" stroke="#7CCAC7" stroke-opacity="0.5" stroke-width="0.826041"/>
<path d="M455.137 51.6155L-73.0005 -225.658" stroke="#7CCAC7" stroke-opacity="0.5" stroke-width="0.826041"/>
<path d="M492.976 51.6155L71.8003 -225.658" stroke="#7CCAC7" stroke-opacity="0.5" stroke-width="0.826041"/>
<path d="M530.812 51.6155L198.961 -225.658" stroke="#7CCAC7" stroke-opacity="0.5" stroke-width="0.826041"/>
<path d="M568.65 51.6155L314.312 -225.658" stroke="#7CCAC7" stroke-opacity="0.5" stroke-width="0.826041"/>
<path d="M606.487 51.6155L421.683 -225.658" stroke="#7CCAC7" stroke-opacity="0.5" stroke-width="0.826041"/>
<path d="M644.325 51.6155L523.781 -225.658" stroke="#7CCAC7" stroke-opacity="0.5" stroke-width="0.826041"/>
<path d="M682.162 51.6155L622.655 -225.658" stroke="#7CCAC7" stroke-opacity="0.5" stroke-width="0.826041"/>
<path d="M720 51.6155V-225.658" stroke="#7CCAC7" stroke-opacity="0.5" stroke-width="0.826041"/>
<path d="M757.84 51.6155L817.34 -225.658" stroke="#7CCAC7" stroke-opacity="0.5" stroke-width="0.826041"/>
<path d="M795.673 51.6155L916.217 -225.658" stroke="#7CCAC7" stroke-opacity="0.5" stroke-width="0.826041"/>
<path d="M833.514 51.6155L1018.32 -225.658" stroke="#7CCAC7" stroke-opacity="0.5" stroke-width="0.826041"/>
<path d="M871.347 51.6155L1125.68 -225.658" stroke="#7CCAC7" stroke-opacity="0.5" stroke-width="0.826041"/>
<path d="M909.188 51.6155L1241.03 -225.658" stroke="#7CCAC7" stroke-opacity="0.5" stroke-width="0.826041"/>
<path d="M947.021 51.6155L1368.2 -225.658" stroke="#7CCAC7" stroke-opacity="0.5" stroke-width="0.826041"/>
<path d="M984.861 51.6155L1513 -225.658" stroke="#7CCAC7" stroke-opacity="0.5" stroke-width="0.826041"/>
<path d="M455.138 329.725L-72.9995 607" stroke="#7CCAC7" stroke-opacity="0.5" stroke-width="0.826041"/>
<path d="M455.138 309.858L-72.999 530.978" stroke="#7CCAC7" stroke-opacity="0.5" stroke-width="0.826041"/>
<path d="M455.137 289.995L-72.999 464.218" stroke="#7CCAC7" stroke-opacity="0.5" stroke-width="0.826041"/>
<path d="M455.138 270.13L-72.999 403.659" stroke="#7CCAC7" stroke-opacity="0.5" stroke-width="0.826041"/>
<path d="M455.138 250.265L-72.999 347.288" stroke="#7CCAC7" stroke-opacity="0.5" stroke-width="0.826041"/>
<path d="M455.138 230.399L-72.9995 293.685" stroke="#7CCAC7" stroke-opacity="0.5" stroke-width="0.826041"/>
<path d="M455.138 210.536L-72.9995 241.776" stroke="#7CCAC7" stroke-opacity="0.5" stroke-width="0.826041"/>
<path d="M455.138 190.669H-72.9995" stroke="#7CCAC7" stroke-opacity="0.5" stroke-width="0.826041"/>
<path d="M455.138 170.804L-72.9995 139.563" stroke="#7CCAC7" stroke-opacity="0.5" stroke-width="0.826041"/>
<path d="M455.138 150.94L-72.9995 87.6534" stroke="#7CCAC7" stroke-opacity="0.5" stroke-width="0.826041"/>
<path d="M455.138 131.075L-72.999 34.0524" stroke="#7CCAC7" stroke-opacity="0.5" stroke-width="0.826041"/>
<path d="M455.138 111.211L-72.999 -22.3184" stroke="#7CCAC7" stroke-opacity="0.5" stroke-width="0.826041"/>
<path d="M455.138 91.3456L-72.999 -82.8781" stroke="#7CCAC7" stroke-opacity="0.5" stroke-width="0.826041"/>
<path d="M455.138 71.4807L-72.999 -149.639" stroke="#7CCAC7" stroke-opacity="0.5" stroke-width="0.826041"/>
<path d="M984.861 329.725L1513 607.001" stroke="#7CCAC7" stroke-opacity="0.5" stroke-width="0.826041"/>
<path d="M947.021 329.725L1368.2 607.001" stroke="#7CCAC7" stroke-opacity="0.5" stroke-width="0.826041"/>
<path d="M909.188 329.725L1241.04 607.001" stroke="#7CCAC7" stroke-opacity="0.5" stroke-width="0.826041"/>
<path d="M871.347 329.725L1125.68 607.001" stroke="#7CCAC7" stroke-opacity="0.5" stroke-width="0.826041"/>
<path d="M833.514 329.725L1018.32 607" stroke="#7CCAC7" stroke-opacity="0.5" stroke-width="0.826041"/>
<path d="M795.673 329.725L916.217 607" stroke="#7CCAC7" stroke-opacity="0.5" stroke-width="0.826041"/>
<path d="M757.833 329.725L817.341 607" stroke="#7CCAC7" stroke-opacity="0.5" stroke-width="0.826041"/>
<path d="M720 329.725V607" stroke="#7CCAC7" stroke-opacity="0.5" stroke-width="0.826041"/>
<path d="M682.161 329.725L622.654 607" stroke="#7CCAC7" stroke-opacity="0.5" stroke-width="0.826041"/>
<path d="M644.324 329.725L523.781 607" stroke="#7CCAC7" stroke-opacity="0.5" stroke-width="0.826041"/>
<path d="M606.487 329.725L421.683 607" stroke="#7CCAC7" stroke-opacity="0.5" stroke-width="0.826041"/>
<path d="M568.65 329.724L314.312 607" stroke="#7CCAC7" stroke-opacity="0.5" stroke-width="0.826041"/>
<path d="M530.811 329.724L198.961 607" stroke="#7CCAC7" stroke-opacity="0.5" stroke-width="0.826041"/>
<path d="M492.976 329.724L71.7993 607" stroke="#7CCAC7" stroke-opacity="0.5" stroke-width="0.826041"/>
<path d="M984.861 71.4827L1513 -149.637" stroke="#7CCAC7" stroke-opacity="0.5" stroke-width="0.826041"/>
<path d="M984.861 91.3461L1513 -82.8776" stroke="#7CCAC7" stroke-opacity="0.5" stroke-width="0.826041"/>
<path d="M984.861 111.211L1513 -22.3178" stroke="#7CCAC7" stroke-opacity="0.5" stroke-width="0.826041"/>
<path d="M984.861 131.075L1513 34.0519" stroke="#7CCAC7" stroke-opacity="0.5" stroke-width="0.826041"/>
<path d="M984.861 150.94L1513 87.6534" stroke="#7CCAC7" stroke-opacity="0.5" stroke-width="0.826041"/>
<path d="M984.861 170.805L1513 139.564" stroke="#7CCAC7" stroke-opacity="0.5" stroke-width="0.826041"/>
<path d="M984.861 190.669H1513" stroke="#7CCAC7" stroke-opacity="0.5" stroke-width="0.826041"/>
<path d="M984.861 210.536L1513 241.778" stroke="#7CCAC7" stroke-opacity="0.5" stroke-width="0.826041"/>
<path d="M984.861 230.4L1513 293.686" stroke="#7CCAC7" stroke-opacity="0.5" stroke-width="0.826041"/>
<path d="M984.861 250.266L1513 347.288" stroke="#7CCAC7" stroke-opacity="0.5" stroke-width="0.826041"/>
<path d="M984.861 270.13L1513 403.659" stroke="#7CCAC7" stroke-opacity="0.5" stroke-width="0.826041"/>
<path d="M984.861 289.995L1513 464.218" stroke="#7CCAC7" stroke-opacity="0.5" stroke-width="0.826041"/>
<path d="M984.861 309.859L1513 530.979" stroke="#7CCAC7" stroke-opacity="0.5" stroke-width="0.826041"/>
</g>
</g>
</g>
</g>
</g>
<g clip-path="url(#clip2_58_103)">
<g clip-path="url(#clip3_58_103)">
<g clip-path="url(#clip4_58_103)">
<g filter="url(#filter0_f_58_103)">
<path d="M92.2081 338.142C164.317 338.142 222.774 396.598 222.774 468.708C222.774 540.817 164.317 599.273 92.2081 599.273C20.0988 599.273 -38.3574 540.817 -38.3574 468.708C-38.3574 396.598 20.0988 338.142 92.2081 338.142Z" fill="#D2F8FF"/>
</g>
</g>
</g>
</g>
<defs>
<filter id="filter0_f_58_103" x="-211.292" y="165.208" width="607" height="607" filterUnits="userSpaceOnUse" color-interpolation-filters="sRGB">
<feFlood flood-opacity="0" result="BackgroundImageFix"/>
<feBlend mode="normal" in="SourceGraphic" in2="BackgroundImageFix" result="shape"/>
<feGaussianBlur stdDeviation="86.4672" result="effect1_foregroundBlur_58_103"/>
</filter>
<linearGradient id="paint0_linear_58_103" x1="1513" y1="324.081" x2="-73" y2="324.081" gradientUnits="userSpaceOnUse">
<stop stop-color="white" stop-opacity="0"/>
<stop offset="0.1" stop-color="white"/>
<stop offset="0.5" stop-color="white"/>
<stop offset="0.9" stop-color="white"/>
<stop offset="1" stop-color="white" stop-opacity="0"/>
</linearGradient>
<linearGradient id="paint1_linear_58_103" x1="720" y1="607" x2="720" y2="41.1617" gradientUnits="userSpaceOnUse">
<stop stop-color="#F8F2FF"/>
<stop offset="1" stop-color="#F8F2FF" stop-opacity="0"/>
</linearGradient>
<clipPath id="clip0_58_103">
<rect width="1586" height="607" fill="white" transform="matrix(1 0 0 -1 -73 607)"/>
</clipPath>
<clipPath id="clip1_58_103">
<rect width="1586" height="565.838" fill="white" transform="matrix(1 0 0 -1 -73 607)"/>
</clipPath>
<clipPath id="clip2_58_103">
<rect width="1486.87" height="607" fill="white" transform="matrix(1 0 0 -1 -651.229 772.208)"/>
</clipPath>
<clipPath id="clip3_58_103">
<rect width="1486.87" height="607" fill="white" transform="matrix(1 0 0 -1 -651.229 772.208)"/>
</clipPath>
<clipPath id="clip4_58_103">
<rect width="607" height="607" fill="white" transform="matrix(1 0 0 -1 -211.292 772.208)"/>
</clipPath>
</defs>
</svg>
